<svg width="140" height="44" viewBox="0 0 140 44" fill="none" xmlns="http://www.w3.org/2000/svg">
<path d="M98.0772 3.3786C98.0772 3.3786 95.4528 4.42536 92.4006 7.79594C89.3483 11.1665 87.5706 14.9567 88.8862 15.9647C89.3915 16.3478 90.5569 16.4208 92.6714 14.5052C94.6229 12.8076 96.1546 10.6796 97.1463 8.28852C98.512 4.95215 98.0772 3.41965 98.0772 3.38317M114.782 9.44246C111.39 7.70016 108.912 5.56561 106.333 4.2452C103.872 2.97952 102.281 2.45044 100.292 2.71726C100.014 2.76682 99.7406 2.8354 99.4725 2.9225C99.4725 2.9225 100.497 6.42764 96.4202 12.3159C92.2913 18.2862 88.5448 18.2452 87.4796 16.6055C86.3643 14.8746 87.8051 11.3467 90.2109 8.20643C92.7306 4.9225 97.1554 2.19959 97.1554 2.19959C97.1554 2.19959 95.7442 1.33528 92.2799 3.30335C88.8999 5.21441 83.0821 9.77541 77.6831 17.4675C72.2841 25.1597 71.2144 29.3923 70.4405 32.7241C69.6666 36.0559 70.3699 39.6249 74.0573 39.6249C77.7446 39.6249 82.0374 33.9898 83.2483 32.0308C85.4993 28.382 86.9674 22.7857 83.9038 23.5542C82.3947 23.9328 81.1724 25.6067 80.4008 27.219C79.9137 28.2545 79.5412 29.3405 79.2901 30.4573C78.2195 30.8993 77.2141 31.4855 76.3015 32.1996C75.2863 32.953 74.3375 33.7923 73.4655 34.7081C73.4655 34.7081 73.4791 32.0445 75.5982 27.7344C77.7173 23.4242 81.6072 21.4561 83.8105 21.2714C85.7952 21.1118 88.3786 22.7994 86.189 29.0251C83.9994 35.2509 77.5397 42.8199 70.7546 42.9134C64.493 43 60.3959 34.9932 69.1112 21.0206C78.7575 5.58385 90.0721 0.847248 93.7458 0.320452C97.4194 -0.206344 98.6144 1.41737 98.6144 1.41737C100.826 0.508377 103.214 0.113833 105.6 0.26344C110.086 0.566746 113.555 3.74805 118.134 5.98294C116.944 7.12319 115.808 8.32045 114.784 9.44246M134.937 4.2452C131.828 6.24291 127.526 8.05363 123.392 7.66595C122.345 8.74919 121.225 10.0035 120.103 11.3718C127.271 12.7925 133.551 8.34326 136.89 4.55534C138.107 3.19345 139.153 1.68692 140.003 0.0695969C138.483 1.65602 136.782 3.05754 134.935 4.2452M125.391 24.4778C125.445 24.3831 125.489 24.283 125.523 24.1791C125.501 24.0146 125.425 23.8624 125.305 23.7479C125.185 23.6334 125.03 23.5634 124.865 23.5496C124.182 23.5177 123.251 23.6477 120.809 26.3569C118.783 28.5942 117.039 31.0728 115.617 33.7366C114.22 36.2954 113.653 38.2019 114.456 38.6945C114.717 38.8299 115.02 38.8609 115.303 38.7811C115.847 38.6511 116.464 38.1403 117.402 37.0525C117.841 36.5417 118.328 35.8187 118.911 35.0183C120.527 32.8153 124.587 25.8803 125.391 24.4778ZM100.021 27.4242C100.428 26.3569 100.947 24.2612 99.8685 23.4379C98.71 22.5645 95.7556 24.6146 95.7396 26.7173C95.7191 28.8701 97.82 29.8438 98.323 29.9807C98.6098 30.0582 98.71 30.0468 98.8488 29.8165C99.2944 29.0472 99.6861 28.2479 100.021 27.4242ZM97.7859 31.3398C97.0537 31.0011 96.3708 30.5646 95.7556 30.0422C95.1387 29.5237 94.6231 28.8951 94.2351 28.1882C94.1941 28.1198 94.1532 28.1722 94.1077 28.2338C94.0621 28.2954 93.88 28.4618 92.305 30.7743C90.7299 33.0867 88.3104 37.878 90.5 38.6945C91.9021 39.2167 94.2351 36.756 95.5075 35.1255C96.3744 33.9874 97.16 32.7894 97.8587 31.5405C97.9247 31.4014 97.8587 31.3695 97.7881 31.3398M122.625 36.8746C122.031 37.8279 121.353 39.6568 123.308 38.5189C125.7 37.1346 129.108 31.9556 129.108 31.9556H130.653C129.247 34.122 127.681 36.1802 125.969 38.1129C123.545 40.8039 120.588 43.2486 118.505 43.0069C116.072 42.7218 116.835 39.5223 116.835 39.5223C116.835 39.5223 113.355 43.2349 110.946 42.9681C107.694 42.6078 108.686 38.5804 108.686 38.5804C108.686 38.5804 105.008 43.1027 102.502 42.9636C98.5734 42.7355 99.5613 37.9464 100.654 34.5736C101.239 32.7697 101.78 31.3535 101.78 31.3535C101.78 31.3535 101.391 31.4561 100.554 31.5816C100.117 31.6431 99.32 31.6888 99.32 31.6888C99.32 31.6888 97.6834 34.5804 96.3747 36.3182C95.0659 38.0559 89.503 44.0468 86.23 42.8472C83.2027 41.7389 84.2042 37.0958 85.966 33.406C88.538 28.0263 95.7715 20.2976 99.9436 21.3193C104.268 22.3706 100.042 30.2771 100.042 30.2771C100.042 30.2771 100.042 30.3068 100.087 30.3273C100.174 30.3592 100.399 30.3843 100.92 30.2817C101.46 30.1713 101.99 30.0133 102.502 29.8096C102.502 29.8096 106.849 20.6876 111.652 14.7195C116.455 8.75147 126.035 -1.52675 129.795 0.958992C130.705 1.57017 130.296 3.67507 129.058 6.22923C128.5 6.41074 127.933 6.56298 127.36 6.68533C128.188 5.17792 128.737 3.90768 128.901 3.02057C129.467 -0.0626724 122.282 6.44132 117.147 13.4288C114.054 17.6412 111.306 22.0974 108.93 26.7537C109.857 26.1869 110.743 25.5536 111.579 24.8586C113.87 22.9558 116.046 20.9196 118.098 18.7606C120.074 16.7341 121.927 14.5912 123.647 12.3433C124.194 12.3168 124.739 12.2604 125.279 12.1745C123.403 14.7255 121.358 17.1468 119.156 19.4219C117.108 21.4972 114.891 23.7298 112.965 25.3512C111.245 26.8167 109.431 28.1674 107.535 29.3946C107.535 29.3946 103.044 38.4687 105.486 39.0502C106.922 39.3968 109.758 35.0206 109.758 35.0206C109.758 35.0206 113.459 29.3626 115.69 26.8108C118.733 23.3444 121.353 21.3376 123.97 21.3011C125.495 21.2737 126.395 22.8974 126.395 22.8974L127.111 21.7845H131.527C131.527 21.7845 123.281 35.8051 122.621 36.8609M134.935 4.2452C131.825 6.24291 127.523 8.05363 123.39 7.66595C122.343 8.74919 121.223 10.0035 120.101 11.3718C127.269 12.7925 133.548 8.34326 136.887 4.55534C138.106 3.19358 139.152 1.68705 140.003 0.0695969C138.483 1.65602 136.782 3.05754 134.935 4.2452ZM72.9215 11.1232H68.722L66.348 14.9658H70.5475L72.9215 11.1232ZM53.0372 24.4299C54.824 21.9761 59.7541 13.3763 59.7541 13.3763C59.7333 13.2121 59.6568 13.0599 59.5375 12.9454C59.4182 12.8308 59.2632 12.7607 59.0986 12.7469C58.4157 12.715 57.2777 12.9453 55.0175 15.78C52.7573 18.6146 51.0024 20.8701 49.7232 23.2167C48.3211 25.7777 47.7088 27.5838 48.5146 28.0742C48.776 28.2054 49.0764 28.2362 49.359 28.1608C49.8825 28.0285 50.5676 27.5017 51.5077 26.4185C51.9492 25.9122 52.45 25.2304 53.0372 24.4299ZM30.5036 12.7994C29.3428 11.9214 26.3906 13.9761 26.3747 16.0742C26.3565 18.2292 29.0309 18.8883 29.3769 18.9043C29.4787 18.9127 29.5807 18.8913 29.6705 18.8427C29.7322 18.8066 29.7815 18.7525 29.8116 18.6876C30.1261 18.0685 30.4087 17.4337 30.6584 16.7857C31.0658 15.7184 31.5825 13.6226 30.5036 12.7994ZM28.7532 20.2178C27.9528 19.9673 27.1878 19.6147 26.4771 19.1688C25.7884 18.7189 25.2283 18.0973 24.852 17.3649C24.811 17.2965 24.7655 17.349 24.7245 17.4105C24.6835 17.4721 24.4468 17.7686 22.8672 20.0901C21.2875 22.4117 18.9477 27.1597 21.1396 27.9761C22.5371 28.5075 24.8975 26.0263 26.1789 24.4025C27.1379 23.1265 28.024 21.7972 28.8329 20.4208C28.8853 20.2817 28.8329 20.2498 28.7555 20.2247M63.0522 21.6477H64.5908C64.5908 21.6477 56.8816 32.8222 52.5274 32.3022C50.0965 32.0171 50.818 29.0114 50.818 29.0114C50.818 29.0114 47.4038 33.016 44.2673 32.2041C41.4222 31.4721 43.259 26.7309 43.259 26.7309C42.9358 26.8609 36.7789 33.8142 32.4519 32.1471C27.9247 30.3957 30.276 24.5736 31.1363 22.8222C31.867 21.3467 32.675 19.91 32.675 19.91C32.675 19.91 31.9808 20.1061 31.5369 20.2064C31.0931 20.3068 30.4512 20.4345 30.4512 20.4345C30.4512 20.4345 28.3094 23.9214 27.0006 25.6614C25.6918 27.4014 20.129 33.3809 16.8514 32.1905C13.5737 31 14.3863 26.4048 16.2277 22.756C19.214 16.8381 26.2996 9.56561 30.5673 10.6694C34.8783 11.7709 31.3093 18.7766 31.3093 18.7766C31.3093 18.7766 32.1674 18.8883 34.2228 17.4835C37.1817 15.4607 41.0876 10.0194 45.3166 10.658C47.3105 10.959 49.1678 13 46.6277 16.8769C45.8174 18.122 44.4585 19.2349 43.4183 18.1334C42.7696 17.4493 43.3364 16.2019 44.0169 15.349C44.2818 15.0013 44.628 14.7242 45.0249 14.542C45.4218 14.3599 45.8573 14.2783 46.2931 14.3045C46.2931 14.3045 46.9918 12.7081 45.2142 12.7309C43.7757 12.7583 40.1339 16.1175 38.0785 19.5109C36.1939 22.626 33.3374 27.9328 36.2053 29.089C38.8342 30.1517 43.8371 24.2019 46.1542 21.0844C48.4713 17.967 53.7519 10.902 58.1813 10.6192C59.7063 10.5189 60.6145 11.9122 60.6145 11.9122L61.1266 11.1004H65.5559C65.5559 11.1004 57.2139 25.0479 56.563 26.1038C56.0508 26.9293 55.3703 28.7857 57.2458 27.7458C59.1213 26.7059 63.0522 21.6477 63.0522 21.6477ZM60.6418 43.9966C57.3804 41.7347 53.4752 40.5929 49.5115 40.7423C48.4387 40.7717 47.3879 41.0539 46.4443 41.5662C45.5007 42.0786 44.6909 42.8065 44.0807 43.691C42.3918 40.7378 39.0527 38.9248 33.8905 38.9658C25.5485 39.0616 17.2747 42.9157 10.7195 42.9111C4.43738 42.9111 -0.144466 38.9544 0.00348255 31.9282C0.278894 19.5975 10.6785 8.49377 18.4401 3.49719C22.915 0.626039 26.6569 -0.226868 29.1038 0.0490724C30.8882 0.247476 33.0346 2.31361 31.6803 5.35808C29.691 9.80734 26.9437 9.44246 27.0461 7.31475C27.103 5.93049 28.0226 5.05933 28.7145 4.57815C29.1538 4.27484 29.93 4.18818 30.3351 4.17906C30.7289 3.84611 31.018 1.41053 27.8314 2.21099C24.6448 3.01144 20.7754 6.15854 17.1017 10.2247C13.4281 14.2908 7.70817 21.9761 6.2947 30.0468C5.63462 33.7891 6.06708 40.6146 14.9235 40.5371C22.4347 40.4755 33.5058 35.52 43.6801 35.6226C47.6292 35.6614 51.0661 36.7287 53.7451 38.3843C56.3763 40.008 59.531 42.3797 60.6509 43.9989" fill="#A695F0"/>
</svg>
