<svg width="124" height="56" viewBox="0 0 124 56" fill="none" xmlns="http://www.w3.org/2000/svg">
<path d="M19.4815 25.9535C17.4656 24.8393 15.1999 24.2686 12.9026 24.2961C9.23554 24.2961 6.14004 25.5233 3.69535 27.9439C2.49321 29.1229 1.5448 30.5402 0.9095 32.1068C0.2742 33.6734 -0.0343114 35.3558 0.00328511 37.0485C-0.0356016 38.7397 0.271106 40.4208 0.904229 41.9866C1.53735 43.5525 2.48328 44.9695 3.68284 46.149C6.12753 48.5695 9.22302 49.8009 12.8901 49.8009C16.5571 49.8009 19.6484 48.578 22.0681 46.1658C24.4877 43.7537 25.7309 40.6836 25.7309 37.0485C25.7554 34.7657 25.1795 32.5172 24.0622 30.5332C22.9797 28.6109 21.395 27.0265 19.4815 25.9535ZM19.2354 40.8818C18.6288 41.9995 17.7259 42.9239 16.628 43.5512C15.4912 44.1963 14.2061 44.5265 12.9026 44.5085C11.9374 44.5295 10.9782 44.351 10.0837 43.9841C9.18913 43.6172 8.37811 43.0695 7.7003 42.3747C7.00821 41.679 6.46399 40.8477 6.101 39.9319C5.73801 39.016 5.5639 38.0348 5.58936 37.0485C5.56431 36.0617 5.73859 35.08 6.10154 34.1635C6.46449 33.247 7.00849 32.415 7.7003 31.7182C8.38199 31.0191 9.19844 30.469 10.099 30.102C10.9996 29.7349 11.9652 29.5587 12.9359 29.5843C13.8991 29.5599 14.8568 29.7369 15.7491 30.104C16.6414 30.4712 17.4491 31.0208 18.1215 31.7182C18.8065 32.4188 19.3443 33.2522 19.7027 34.1681C20.0612 35.0841 20.2328 36.0638 20.2074 37.0485C20.2174 38.3898 19.8824 39.7108 19.2354 40.8818Z" fill="#0A0A0A"/>
<path d="M39.6357 29.8712C39.0105 29.8701 38.3869 29.9351 37.7751 30.0652C37.1858 30.1961 36.6123 30.3912 36.0646 30.6471C35.5417 30.8875 35.0453 31.1829 34.5836 31.5285C34.2094 31.8058 33.8678 32.1255 33.5657 32.4815L32.6938 30.4489C32.6793 30.4164 32.6559 30.3887 32.6263 30.3693C32.5967 30.3498 32.5622 30.3394 32.5269 30.3393H29.1185C29.071 30.3393 29.0253 30.3584 28.9917 30.3924C28.958 30.4264 28.9391 30.4725 28.9391 30.5206V49.1179C28.9391 49.1659 28.958 49.2121 28.9917 49.2461C29.0253 49.2801 29.071 49.2992 29.1185 49.2992H34.0955C34.1431 49.2992 34.1887 49.2801 34.2224 49.2461C34.256 49.2121 34.2749 49.1659 34.2749 49.1179V39.3174C34.2572 38.4575 34.4207 37.6036 34.7547 36.8125C35.0349 36.149 35.5096 35.5883 36.1147 35.2058C36.7444 34.8253 37.4671 34.6309 38.2006 34.6449C40.2323 34.6449 41.221 35.9522 41.221 38.63V51.9546C41.221 52.0027 41.2399 52.0489 41.2735 52.0829C41.3072 52.1169 41.3528 52.136 41.4004 52.136H46.3941C46.4416 52.136 46.4873 52.1169 46.5209 52.0829C46.5546 52.0489 46.5735 52.0027 46.5735 51.9546V37.8372C46.5735 35.4419 45.9477 33.4936 44.7045 32.0556C43.4613 30.6176 41.7466 29.8712 39.6357 29.8712Z" fill="#0A0A0A"/>
<path d="M68.1207 30.4024C68.1045 30.3773 68.0821 30.3568 68.0559 30.3428C68.0296 30.3287 68.0002 30.3217 67.9705 30.3223H62.6556C62.6196 30.3217 62.5843 30.3322 62.5544 30.3526C62.5245 30.373 62.5016 30.4022 62.4888 30.4362L58.0833 41.4638L53.3525 30.432C53.338 30.3994 53.3146 30.3717 53.285 30.3523C53.2554 30.3328 53.2209 30.3224 53.1856 30.3223H47.7622C47.7321 30.3222 47.7025 30.3298 47.6762 30.3446C47.6499 30.3594 47.6278 30.3807 47.612 30.4067C47.5978 30.4332 47.5903 30.4629 47.5903 30.4931C47.5903 30.5233 47.5978 30.553 47.612 30.5796L55.38 47.684L55.3424 47.7556C54.7667 49.1431 54.2327 50.0624 53.7571 50.4756C53.2815 50.8889 52.4847 51.0871 51.3542 51.0871H49.6062C49.5586 51.0871 49.513 51.1062 49.4793 51.1402C49.4457 51.1742 49.4268 51.2204 49.4268 51.2685V55.8144C49.4268 55.8629 49.4455 55.9095 49.4791 55.9442C49.5126 55.9789 49.5582 55.9989 49.6062 56H51.6504C53.7071 56 55.3633 55.4602 56.5731 54.4059C57.7829 53.3517 58.9552 51.5173 60.0941 48.9238L68.1374 30.5669C68.1477 30.5401 68.1516 30.5112 68.1487 30.4826C68.1458 30.454 68.1362 30.4266 68.1207 30.4024Z" fill="#0A0A0A"/>
<path d="M81.9339 39.2878L87.8287 30.6049C87.8469 30.5775 87.8574 30.5456 87.859 30.5126C87.8607 30.4797 87.8533 30.4469 87.8379 30.4178C87.8224 30.3887 87.7994 30.3645 87.7714 30.3477C87.7433 30.3308 87.7112 30.3221 87.6785 30.3223H82.1884C82.1582 30.3217 82.1285 30.3292 82.1021 30.344C82.0757 30.3589 82.0537 30.3805 82.0382 30.4067L78.7884 35.5304L75.7346 30.4109C75.7184 30.3841 75.6957 30.362 75.6687 30.3465C75.6417 30.331 75.6113 30.3227 75.5802 30.3223H69.9608C69.9286 30.322 69.8968 30.3304 69.8689 30.3467C69.841 30.363 69.818 30.3866 69.8023 30.4151C69.7858 30.4439 69.7771 30.4767 69.7771 30.51C69.7771 30.5433 69.7858 30.576 69.8023 30.6049L75.5969 39.5619L69.3934 48.9997C69.3769 49.0277 69.3682 49.0598 69.3682 49.0924C69.3682 49.1251 69.3769 49.1572 69.3934 49.1852C69.4089 49.2142 69.4318 49.2384 69.4597 49.2554C69.4875 49.2725 69.5194 49.2817 69.5519 49.2822H75.0379C75.0689 49.2819 75.0994 49.2735 75.1264 49.258C75.1534 49.2426 75.176 49.2204 75.1923 49.1937L78.7842 43.2898L82.276 49.1937C82.2922 49.2204 82.3149 49.2426 82.3419 49.258C82.3689 49.2735 82.3993 49.2819 82.4304 49.2822H88.054C88.0866 49.2817 88.1184 49.2725 88.1463 49.2554C88.1741 49.2384 88.197 49.2142 88.2125 49.1852C88.2291 49.1572 88.2378 49.1251 88.2378 49.0924C88.2378 49.0598 88.2291 49.0277 88.2125 48.9997L81.9339 39.2878Z" fill="#0A0A0A"/>
<path d="M102.78 31.1403C101.248 30.2413 99.5038 29.7793 97.7325 29.8035C96.6619 29.7973 95.5972 29.9639 94.5786 30.2969C93.616 30.6065 92.711 31.0753 91.9003 31.6843C91.1126 32.2802 90.4167 32.9907 89.8352 33.7929C89.2348 34.6352 88.7779 35.573 88.4835 36.5677C88.1722 37.6167 88.0189 38.7071 88.0288 39.8022C87.9976 41.1162 88.2274 42.4232 88.7046 43.6459C89.1819 44.8686 89.8968 45.9821 90.8072 46.9206C91.7046 47.8595 92.7848 48.6002 93.9796 49.096C95.1745 49.5917 96.458 49.8317 97.7492 49.8008C99.8104 49.8321 101.827 49.1933 103.502 47.9786C105.177 46.7638 106.421 45.0373 107.052 43.0535C107.061 43.026 107.063 42.9969 107.059 42.9684C107.054 42.9399 107.044 42.9128 107.027 42.8891C107.01 42.8658 106.989 42.8469 106.963 42.8337C106.938 42.8205 106.91 42.8135 106.881 42.8132H101.616C101.585 42.8135 101.555 42.8218 101.528 42.8373C101.501 42.8528 101.478 42.875 101.462 42.9017C101.096 43.5351 100.565 44.0546 99.9268 44.403C99.2532 44.7705 98.4979 44.9577 97.7325 44.947C96.706 45.0168 95.6918 44.6884 94.8965 44.0287C94.1012 43.3689 93.5847 42.4275 93.4522 41.3962H107.136C107.179 41.3967 107.222 41.3811 107.255 41.3524C107.288 41.3236 107.309 41.2838 107.315 41.2402C107.384 40.7414 107.419 40.2384 107.419 39.7347C107.433 38.0015 107.021 36.292 106.222 34.7586C105.434 33.2497 104.241 31.9957 102.78 31.1403ZM93.6024 37.5882C93.8313 36.702 94.3305 35.9111 95.0291 35.3279C95.7999 34.722 96.7566 34.4086 97.7325 34.4423C98.3948 34.4412 99.0494 34.5851 99.6515 34.864C100.226 35.1243 100.734 35.5137 101.137 36.0026C101.527 36.4796 101.825 37.0259 102.017 37.6135L93.6024 37.5882Z" fill="#0A0A0A"/>
<path d="M121.821 30.2253H120.185C117.962 30.2253 116.193 30.9676 114.925 32.4309L114.153 30.4446C114.139 30.4116 114.115 30.3833 114.086 30.3632C114.056 30.343 114.022 30.3318 113.986 30.3308H110.782C110.734 30.3308 110.689 30.3499 110.655 30.3839C110.621 30.4179 110.603 30.464 110.603 30.5121V49.1093C110.603 49.1574 110.621 49.2036 110.655 49.2376C110.689 49.2716 110.734 49.2907 110.782 49.2907H115.755C115.803 49.2907 115.849 49.2717 115.883 49.2378C115.917 49.2039 115.937 49.1578 115.938 49.1093V39.4101C115.938 37.951 116.222 36.8799 116.794 36.2642C117.365 35.6485 118.325 35.3238 119.672 35.3238H121.821C121.868 35.3238 121.914 35.3047 121.947 35.2707C121.981 35.2367 122 35.1905 122 35.1424V30.4025C121.998 30.3555 121.978 30.311 121.945 30.2781C121.912 30.2452 121.867 30.2264 121.821 30.2253Z" fill="#0A0A0A"/>
<rect x="-0.973685" y="-1.20241" width="27.1622" height="24.3553" rx="12.1777" transform="matrix(0.994445 0.105259 -0.103803 0.994598 24.5925 2.09599)" fill="#FF9E68"/>
<rect x="-0.973685" y="-1.20241" width="27.1622" height="24.3553" rx="12.1777" transform="matrix(0.994445 0.105259 -0.103803 0.994598 24.5925 2.09599)" stroke="white" stroke-width="2.18648"/>
<path d="M34.4418 8.91311L33.3796 19.0905L30.9009 18.8282L31.9631 8.65074L34.4418 8.91311ZM39.9035 17.6557L39.6841 19.7579L38.4229 19.6244C37.5242 19.5292 36.8463 19.2376 36.3892 18.7495C35.9331 18.2517 35.757 17.5051 35.8609 16.5095L36.1968 13.291L35.2111 13.1867L35.4259 11.128L36.4116 11.2323L36.6174 9.26065L39.0961 9.52302L38.8904 11.4947L40.5139 11.6666L40.299 13.7252L38.6755 13.5534L38.3366 16.8009C38.3114 17.0425 38.3512 17.2226 38.456 17.3412C38.5609 17.4598 38.7486 17.5334 39.0192 17.5621L39.9035 17.6557Z" fill="white"/>
<g clip-path="url(#clip0_7386_81)">
<path d="M47.1558 20.4846C46.6257 15.4059 50.3125 10.8531 55.3904 10.3157L104.394 5.1288C113 4.21788 120.705 10.4571 121.603 19.0645L121.896 21.8709L57.3099 28.7072C52.232 29.2447 47.6858 25.5633 47.1558 20.4846Z" fill="#6469E8"/>
<path d="M59.3892 18.5391C59.315 17.8279 59.3897 17.1919 59.6135 16.631C59.8452 16.0693 60.1974 15.6187 60.6701 15.2794C61.1508 14.9393 61.7182 14.7346 62.3723 14.6654C63.2099 14.5767 63.9314 14.7276 64.5367 15.1181C65.15 15.5078 65.5871 16.102 65.8479 16.9009L63.6701 17.1314C63.432 16.6277 63.0497 16.4036 62.5233 16.4594C62.1483 16.4991 61.865 16.682 61.6732 17.0081C61.4805 17.326 61.4132 17.7629 61.4712 18.3187C61.5292 18.8746 61.6857 19.292 61.9406 19.5708C62.1947 19.8414 62.5092 19.9569 62.8841 19.9172C63.4106 19.8615 63.7383 19.5623 63.8672 19.0197L66.045 18.7892C65.9531 19.6089 65.6478 20.2776 65.1292 20.7953C64.6106 21.313 63.9365 21.6158 63.1069 21.7036C62.4527 21.7729 61.8555 21.6914 61.3151 21.4594C60.7827 21.2265 60.3451 20.8595 60.0025 20.3586C59.6678 19.8568 59.4634 19.2503 59.3892 18.5391Z" fill="white"/>
<path d="M66.6328 17.76C66.5594 17.057 66.6226 16.4263 66.8225 15.8679C67.0303 15.3087 67.3426 14.8624 67.7594 14.529C68.1763 14.1957 68.6599 13.9998 69.2104 13.9416C69.681 13.8917 70.1021 13.9464 70.4736 14.1054C70.853 14.2636 71.1551 14.492 71.3798 14.7905L71.2787 13.8218L73.3249 13.6052L74.039 20.4473L71.9928 20.6639L71.8917 19.6952C71.7255 20.0351 71.4732 20.3222 71.1347 20.5564C70.8042 20.7897 70.4036 20.9313 69.933 20.9811C69.3905 21.0385 68.881 20.9478 68.4044 20.709C67.927 20.462 67.5289 20.0868 67.2102 19.5833C66.8986 19.0708 66.7062 18.463 66.6328 17.76ZM71.6358 17.2429C71.5812 16.7197 71.3945 16.3221 71.0757 16.05C70.765 15.7771 70.4062 15.6622 69.9993 15.7052C69.5925 15.7483 69.2613 15.9363 69.0057 16.2691C68.7572 16.593 68.6602 17.0165 68.7148 17.5396C68.7694 18.0628 68.9525 18.4649 69.2642 18.746C69.5829 19.0181 69.9457 19.1326 70.3525 19.0895C70.7594 19.0464 71.0866 18.8589 71.3342 18.5269C71.5899 18.194 71.6904 17.766 71.6358 17.2429Z" fill="white"/>
<path d="M74.7541 16.9004C74.6807 16.1974 74.7439 15.5667 74.9437 15.0083C75.1515 14.4491 75.4639 14.0028 75.8807 13.6694C76.2976 13.336 76.7812 13.1402 77.3317 13.082C77.7704 13.0355 78.1791 13.0873 78.5577 13.2373C78.9442 13.3865 79.2579 13.6095 79.4985 13.9064L79.1671 10.7306L81.2132 10.514L82.1602 19.5877L80.1141 19.8043L80.0117 18.8233C79.8544 19.1706 79.6065 19.4613 79.268 19.6955C78.9375 19.9288 78.5369 20.0704 78.0662 20.1202C77.5158 20.1785 77.0023 20.0882 76.5257 19.8494C76.0483 19.6024 75.6502 19.2271 75.3315 18.7237C75.0199 18.2112 74.8275 17.6034 74.7541 16.9004ZM79.757 16.3832C79.7024 15.8601 79.5158 15.4625 79.197 15.1904C78.8863 14.9175 78.5275 14.8026 78.1206 14.8456C77.7138 14.8887 77.3826 15.0767 77.127 15.4095C76.8785 15.7333 76.7815 16.1569 76.8361 16.68C76.8907 17.2032 77.0738 17.6053 77.3855 17.8864C77.7042 18.1585 78.067 18.273 78.4738 18.2299C78.8807 18.1868 79.2079 17.9993 79.4555 17.6673C79.7111 17.3344 79.8116 16.9064 79.757 16.3832Z" fill="white"/>
<path d="M89.5659 15.2334C89.5864 15.4296 89.5958 15.6353 89.594 15.8503L84.9633 16.3405C85.0396 16.7622 85.2053 17.0752 85.4605 17.2796C85.7229 17.475 86.0256 17.5545 86.3686 17.5182C86.8791 17.4642 87.2111 17.2059 87.3644 16.7434L89.5422 16.5129C89.4774 16.9743 89.3163 17.4005 89.0586 17.7914C88.809 18.1815 88.4755 18.5019 88.0581 18.7527C87.6406 19.0035 87.1607 19.1576 86.6183 19.215C85.9641 19.2843 85.3669 19.2028 84.8265 18.9708C84.2861 18.7387 83.8446 18.3722 83.5019 17.8712C83.1593 17.3703 82.9509 16.7642 82.8766 16.0531C82.8024 15.3419 82.8772 14.7058 83.1009 14.1449C83.3326 13.5832 83.6888 13.1322 84.1695 12.7921C84.6502 12.4519 85.2216 12.2468 85.8837 12.1767C86.5298 12.1084 87.1187 12.1865 87.6503 12.4113C88.1818 12.636 88.6141 12.9911 88.947 13.4765C89.288 13.9611 89.4943 14.5468 89.5659 15.2334ZM87.4143 14.9033C87.3768 14.5436 87.2273 14.2702 86.9658 14.083C86.7043 13.8958 86.3941 13.8212 86.0351 13.8592C85.6921 13.8955 85.4116 14.0285 85.1936 14.2582C84.9836 14.487 84.8703 14.7924 84.8537 15.1743L87.4143 14.9033Z" fill="white"/>
<path d="M98.8118 10.8331C99.6414 10.7453 100.326 10.9332 100.867 11.3967C101.415 11.8593 101.737 12.5484 101.833 13.464L102.25 17.4613L100.216 17.6766L99.8279 13.9613C99.7818 13.5199 99.6307 13.1929 99.3746 12.9803C99.1257 12.7587 98.8018 12.669 98.4029 12.7112C98.0041 12.7534 97.7018 12.9094 97.496 13.1791C97.2974 13.4398 97.2211 13.7909 97.2672 14.2323L97.6549 17.9477L95.6208 18.163L95.233 14.4476C95.1869 14.0062 95.0359 13.6792 94.7798 13.4666C94.5308 13.245 94.2069 13.1554 93.8081 13.1976C93.4092 13.2398 93.1069 13.3958 92.9012 13.6655C92.7025 13.9262 92.6263 14.2772 92.6723 14.7187L93.0601 18.434L91.0139 18.6506L90.2999 11.8085L92.346 11.5919L92.4356 12.4502C92.6131 12.1422 92.8609 11.8887 93.1789 11.6897C93.496 11.4826 93.8659 11.3566 94.2887 11.3119C94.7913 11.2587 95.2495 11.3218 95.6635 11.5011C96.0854 11.6796 96.4293 11.9614 96.6953 12.3465C96.8874 11.946 97.1705 11.6061 97.5446 11.3268C97.9188 11.0475 98.3412 10.883 98.8118 10.8331Z" fill="white"/>
<path d="M109.787 9.74582L106.652 20.2806L104.451 20.5136L105.619 16.8691L102.213 10.5475L104.498 10.3056L106.489 14.4216L107.574 9.98013L109.787 9.74582Z" fill="white"/>
<path d="M51.436 19.3685C51.3626 18.6655 51.4258 18.0348 51.6257 17.4765C51.8335 16.9173 52.1458 16.471 52.5626 16.1376C52.9795 15.8042 53.4631 15.6084 54.0136 15.5501C54.4842 15.5003 54.9053 15.5549 55.2768 15.7139C55.6562 15.8721 55.9583 16.1005 56.183 16.399L56.0819 15.4303L58.1281 15.2138L58.8422 22.0559L56.796 22.2724L56.6949 21.3038C56.5288 21.6437 56.2764 21.9307 55.9379 22.1649C55.6074 22.3982 55.2068 22.5398 54.7362 22.5896C54.1937 22.6471 53.6842 22.5564 53.2076 22.3175C52.7302 22.0705 52.3321 21.6953 52.0134 21.1918C51.7018 20.6793 51.5094 20.0716 51.436 19.3685ZM56.439 18.8514C56.3844 18.3282 56.1977 17.9306 55.8789 17.6585C55.5682 17.3856 55.2094 17.2707 54.8025 17.3138C54.3957 17.3568 54.0645 17.5448 53.8089 17.8777C53.5604 18.2015 53.4634 18.625 53.518 19.1482C53.5726 19.6713 53.7558 20.0735 54.0674 20.3545C54.3861 20.6266 54.7489 20.7411 55.1557 20.698C55.5626 20.655 55.8898 20.4674 56.1375 20.1354C56.3931 19.8026 56.4936 19.3746 56.439 18.8514Z" fill="white"/>
</g>
<path d="M104.299 4.22264C113.405 3.25875 121.558 9.86096 122.509 18.9688L122.896 22.6811L57.4048 29.6131C51.8267 30.2036 46.8322 26.1598 46.2497 20.5809C45.6675 15.0018 49.7179 9.99985 55.2962 9.40941L104.299 4.22264Z" stroke="white" stroke-width="1.82207"/>
<defs>
<clipPath id="clip0_7386_81">
<path d="M47.1558 20.4846C46.6257 15.4059 50.3125 10.8531 55.3904 10.3157L104.394 5.1288C113 4.21788 120.705 10.4571 121.603 19.0645L121.896 21.8709L57.3099 28.7072C52.232 29.2447 47.6858 25.5633 47.1558 20.4846Z" fill="white"/>
</clipPath>
</defs>
</svg>
