<svg width="32" height="32" viewBox="0 0 32 32" fill="none" xmlns="http://www.w3.org/2000/svg">
<rect x="31" y="1" width="30" height="30" rx="15" transform="rotate(90 31 1)" stroke="#3A5DFF" stroke-width="2"/>
<path d="M17 8.5C17 7.94772 16.5523 7.5 16 7.5C15.4477 7.5 15 7.94772 15 8.5H17ZM15.2929 24.2071C15.6834 24.5976 16.3166 24.5976 16.7071 24.2071L23.0711 17.8431C23.4616 17.4526 23.4616 16.8195 23.0711 16.4289C22.6805 16.0384 22.0474 16.0384 21.6569 16.4289L16 22.0858L10.3431 16.4289C9.95262 16.0384 9.31946 16.0384 8.92893 16.4289C8.53841 16.8195 8.53841 17.4526 8.92893 17.8431L15.2929 24.2071ZM15 8.5L15 23.5H17L17 8.5H15Z" fill="#3A5DFF"/>
</svg>
