<svg width="46" height="46" viewBox="0 0 46 46" fill="none" xmlns="http://www.w3.org/2000/svg">
<rect x="1.86782" y="21.1511" width="30" height="30" rx="15" transform="rotate(-40 1.86782 21.1511)" stroke="#3A5DFF" stroke-width="2"/>
<path d="M16.6122 27.0548C16.1891 27.4098 16.1339 28.0405 16.4889 28.4636C16.8439 28.8867 17.4747 28.9418 17.8978 28.5868L16.6122 27.0548ZM29.7418 18.2661C29.79 17.716 29.383 17.2309 28.8328 17.1828L19.867 16.3984C19.3169 16.3503 18.8318 16.7572 18.7837 17.3074C18.7356 17.8576 19.1425 18.3426 19.6927 18.3908L27.6623 19.088L26.965 27.0576C26.9169 27.6078 27.3239 28.0928 27.8741 28.1409C28.4243 28.1891 28.9093 27.7821 28.9574 27.2319L29.7418 18.2661ZM17.8978 28.5868L29.3884 18.945L28.1028 17.4129L16.6122 27.0548L17.8978 28.5868Z" fill="#3A5DFF"/>
</svg>
