<svg width="64" height="64" viewBox="0 0 64 64" fill="none" xmlns="http://www.w3.org/2000/svg">
<path d="M11.9126 6.82715L25.6717 16.7253L24.4161 24.4179L16.7293 25.6736L6.83203 11.9134L11.9126 6.82715Z" fill="#846DED"/>
<path d="M24.4161 39.5819L25.6717 47.2746L11.9126 57.1727L6.83206 52.0864L16.7294 38.3262L24.4161 39.5819Z" fill="#846DED"/>
<path d="M47.2709 38.3262L57.1682 52.0864L52.0824 57.1727L38.3232 47.2746L39.5789 39.5819L47.2709 38.3262Z" fill="#846DED"/>
<path d="M39.5789 24.4179L38.3232 16.7253L52.0824 6.82715L57.1682 11.9134L47.2709 25.6736L39.5789 24.4179Z" fill="#846DED"/>
<path d="M16.7294 25.6738L21.2771 32L16.7294 38.3261L0 35.5983V28.4069L16.7294 25.6738Z" fill="#846DED"/>
<path d="M31.9973 42.7266L38.3229 47.2746L35.5954 64.0001H28.4045L25.6717 47.2746L31.9973 42.7266Z" fill="#846DED"/>
<path d="M35.5954 0L38.3229 16.7255L31.9973 21.2788L25.6717 16.7255L28.4045 0H35.5954Z" fill="#846DED"/>
<path d="M63.9997 28.4069V35.5983L47.2704 38.3261L42.7227 32L47.2704 25.6738L63.9997 28.4069Z" fill="#846DED"/>
</svg>
