<svg width="16" height="16" viewBox="0 0 16 16" fill="none" xmlns="http://www.w3.org/2000/svg">
<path d="M8.00702 4.37503V8.02494H7.99296C7.69513 8.02494 7.40113 8.00701 7.11096 7.97498C3.11129 7.52915 0 4.12905 0 0L3.64177 0C3.64177 2.41748 5.59622 4.37503 8.00702 4.37503Z" fill="#A695F0"/>
<path d="M8.00702 12.3501V16C3.58552 16 0 12.4078 0 7.9751H3.64177C3.64177 10.3926 5.59622 12.3501 8.00702 12.3501Z" fill="#A695F0"/>
<path d="M15.9997 4.37503V8.02494H15.9856C15.6878 8.02494 15.3938 8.00701 15.1036 7.97498C11.104 7.52915 7.99268 4.12905 7.99268 0L11.6344 0C11.6344 2.41748 13.5889 4.37503 15.9997 4.37503Z" fill="#A695F0"/>
<path d="M15.9997 12.3501L15.9997 16C11.5782 16 7.99268 12.4078 7.99268 7.9751H11.6344C11.6344 10.3926 13.5889 12.3501 15.9997 12.3501Z" fill="#A695F0"/>
</svg>
