<svg width="61" height="61" viewBox="0 0 61 61" fill="none" xmlns="http://www.w3.org/2000/svg">
<path d="M59.9712 34.0593C58.8937 30.1163 56.3367 26.5828 52.5442 24.3643C56.6884 16.6211 53.8951 6.95162 46.1988 2.63999C42.3529 0.485426 38.0055 0.0745994 34.058 1.14965C30.1151 2.2272 26.5791 4.78865 24.3631 8.57667C16.6224 4.42799 6.95039 7.22572 2.64126 14.9176C0.486694 18.7635 0.0733722 23.1154 1.14842 27.0628C2.22597 31.0058 4.78742 34.5418 8.57544 36.7578C4.42677 44.4984 7.22699 54.166 14.9188 58.4751C18.7648 60.6297 23.1167 61.043 27.0571 59.9699C31.0046 58.8949 34.538 56.3379 36.7566 52.5454C44.4972 56.6941 54.1648 53.8939 58.4764 46.1975C60.631 42.3516 61.0418 38.0042 59.9712 34.0593ZM45.1581 41.0369L32.1834 36.3211L23.5815 47.1187L20.0795 45.1569L24.7998 32.1846L14.0021 23.5827L15.9615 20.0852L28.9362 24.801L37.5337 14.0009L41.0357 15.9627L36.3199 28.9375L47.1175 37.5394L45.1581 41.0369Z" fill="#846DED"/>
</svg>
