<svg width="140" height="34" viewBox="0 0 140 34" fill="none" xmlns="http://www.w3.org/2000/svg">
<path d="M138.773 16.6391L137.505 16.9792C136.286 12.898 134.244 11.1347 131.361 11.1347C129.336 11.1347 127.911 12.45 127.911 14.5356C127.911 16.5319 129.591 17.5964 134.104 19.4057C138.271 20.9158 140 22.7659 140 25.9967C140 30.9154 136.08 34 129.649 34C126.544 34 123.045 33.3181 121.068 32.5393L120.821 25.7051L122.04 25.462C123.869 30.1382 126.206 31.9067 129.254 31.9067C131.889 31.9067 133.274 30.1042 133.274 28.2541C133.274 26.404 132.204 25.3319 128.086 23.8712C124.166 22.5958 121.482 20.9489 121.482 16.8423C121.482 12.8003 125.088 9.37468 131.232 9.37468C134.13 9.37468 136.765 9.86186 138.495 10.65L138.773 16.6391ZM112.239 18.7817C112.388 15.5678 111.729 10.9255 109.044 10.9255C106.284 10.9255 104.779 15.26 104.73 18.9772L112.239 18.7817ZM109.703 9.36618C116.456 9.36618 119.709 14.2363 119.766 20.6318H104.581C104.532 26.2969 107.579 30.5829 113.276 30.5829C115.763 30.5829 117.196 29.901 118.71 28.8297L119.418 29.6085C117.738 31.8489 114.279 33.9915 109.668 33.9915C102.257 33.9915 97.1172 28.9751 97.1172 21.8978C97.1 15.5015 101.318 9.36532 109.7 9.36532M87.7987 21.2176C87.6503 16.1527 85.7733 12.143 82.166 12.143C81.3094 12.143 80.6504 12.2893 79.63 12.6302L79.9267 32.0946C80.289 32.2409 81.1455 32.3378 81.7554 32.3378C85.2635 32.3378 87.7995 27.4515 87.7995 21.2167M95.3265 20.8273C95.3265 28.8306 90.188 33.9923 81.5078 33.9923C78.4025 33.9923 75.1997 33.5052 72.4161 32.8726C72.6628 29.6587 72.6628 9.74623 72.4161 6.0052C72.1694 4.04966 71.6087 3.13141 70.0871 2.94436L69.0658 2.84658V1.95384L79.7774 0C79.7283 1.65541 79.6291 6.00605 79.6291 11.1211C81.5069 10.196 83.2347 9.66036 85.5749 9.66036C91.1585 9.66036 95.3248 14.3366 95.3248 20.829M68.0359 16.4775C64.7253 14.3349 61.1679 15.26 60.4598 16.4775C60.1466 20.2186 60.2131 26.0002 60.5089 28.9615C60.6573 30.9171 61.2162 31.7375 62.7491 31.8838L64.7744 32.0793V33.3547H49.6386V32.0793L50.8082 31.8838C52.2746 31.7375 52.7922 30.9094 52.8836 28.9615C53.2459 25.7961 53.3451 19.1566 52.8836 15.504C52.7844 13.4099 52.2746 12.6302 50.8082 12.4432L49.6386 12.2969V11.4212L60.4589 9.37553L60.3105 14.8298C62.8465 9.18082 67.8867 8.49894 70.6202 10.009L68.0359 16.4775ZM32.5274 21.7048C32.5274 27.6624 34.1663 32.5325 37.4441 32.5325C41.0015 32.5325 42.0228 27.7601 42.0228 21.7048C42.0228 15.6494 40.4494 10.9255 37.1051 10.9255C33.5314 10.9255 32.5274 15.5525 32.5274 21.7048ZM49.6877 21.607C49.6877 28.4412 45.1091 33.9932 36.9404 33.9932C28.9036 33.9932 24.8521 28.7175 24.8521 21.8008C24.8521 15.016 29.4307 9.36618 37.5994 9.36618C45.6362 9.36618 49.6877 14.675 49.6877 21.607ZM28.6569 9.86271L26.9775 10.3499C25.5611 5.56138 23.0579 2.83383 18.7423 2.83383H13.1096C12.7965 6.0154 12.6481 10.934 12.7965 16.242L16.5514 16.0465C19.0874 16.0465 20.157 14.244 20.7677 11.615H22.1841V22.6851H20.7677C20.1587 20.0069 19.0882 18.1789 16.5514 18.0428L12.7965 17.9943C12.7965 21.9394 12.8457 25.3064 13.1096 27.3614C13.3563 30.2836 14.1792 31.6142 16.353 31.8906L18.3956 32.0861V33.3615H0V32.0861L1.53196 31.8906C3.65652 31.5981 4.52946 30.2751 4.7753 27.3614C5.18675 22.589 5.28595 12.3939 4.7753 6.72875C4.52859 3.71042 3.65565 2.49204 1.53196 2.24802L0 2.00485V0.68869H28.6086L28.6569 9.86271Z" fill="#A695F0"/>
</svg>
