<svg width="70" height="71" viewBox="0 0 70 71" fill="none" xmlns="http://www.w3.org/2000/svg">
<path d="M68.7392 39.4123C67.4932 34.8532 64.5367 30.7676 60.1517 28.2025C64.9434 19.2494 61.7137 8.06906 52.8148 3.08374C48.368 0.592522 43.3413 0.117505 38.7771 1.36053C34.218 2.60644 30.1295 5.56813 27.5673 9.94802C18.6171 5.15112 7.43385 8.38599 2.45142 17.2797C-0.0397989 21.7265 -0.517702 26.7584 0.725321 31.3226C1.97124 35.8817 4.93292 39.9702 9.31282 42.5324C4.51591 51.4826 7.75367 62.6607 16.6474 67.6431C21.0942 70.1343 26.1261 70.6122 30.6823 69.3715C35.2465 68.1285 39.3321 65.1719 41.8972 60.7869C50.8474 65.5838 62.0255 62.346 67.0108 53.4472C69.502 49.0003 69.977 43.9736 68.7392 39.4123ZM51.6115 47.4802L36.6095 42.0275L26.6635 54.5123L22.6144 52.2439L28.0722 37.2447L15.5874 27.2987L17.8529 23.2547L32.855 28.7074L42.7958 16.2197L46.845 18.4882L41.3923 33.4902L53.8771 43.4362L51.6115 47.4802Z" fill="#FF9E68"/>
</svg>
