<svg width="32" height="32" viewBox="0 0 32 32" fill="none" xmlns="http://www.w3.org/2000/svg">
<rect x="1" y="1" width="30" height="30" rx="15" stroke="#3A5DFF" stroke-width="2"/>
<g clip-path="url(#clip0_7386_562)">
<path fill-rule="evenodd" clip-rule="evenodd" d="M24 23H20.4636V17.7267C20.4636 16.3468 19.9109 15.4044 18.6942 15.4044C17.764 15.4044 17.2465 16.0404 17.0058 16.6531C16.9153 16.8729 16.9295 17.1792 16.9295 17.4856V23H13.4262C13.4262 23 13.4713 13.6591 13.4262 12.8101H16.9295V14.4095C17.1367 13.7101 18.256 12.7122 20.0422 12.7122C22.2585 12.7122 24 14.1778 24 17.3341V23ZM9.88364 11.5355H9.86073C8.732 11.5355 8 10.7566 8 9.76925C8 8.76275 8.75345 8 9.90509 8C11.0556 8 11.7633 8.76087 11.7855 9.76625C11.7855 10.7536 11.0556 11.5355 9.88364 11.5355ZM8.40364 12.8101H11.5222V23H8.40364V12.8101Z" fill="#3A5DFF"/>
</g>
<defs>
<clipPath id="clip0_7386_562">
<rect width="16" height="15" fill="white" transform="translate(8 8)"/>
</clipPath>
</defs>
</svg>
