<svg width="140" height="39" viewBox="0 0 140 39" fill="none" xmlns="http://www.w3.org/2000/svg">
<path d="M9.96082 0C6.6063 0 3.94957 1.11254 2.50995 2.55088C0.511585 4.54745 0 6.25353 0 10.1901V38.1197H8.03974V10.1901C8.03974 8.68573 8.71267 7.91617 9.9964 7.91617C11.2344 7.91617 11.9347 8.54983 12.3692 10.1901L17.3023 28.8095C18.5472 33.5079 19.3431 34.9982 20.793 36.4491C22.4467 38.104 25.0402 39 27.75 39C31.1043 39 33.7607 37.8876 35.2009 36.4487C37.1993 34.4521 37.7104 32.7463 37.7104 28.8095V0.880345H29.6707V28.8095C29.6707 30.3138 28.9979 31.0843 27.7145 31.0843C26.4765 31.0843 25.7762 30.4497 25.3416 28.8095L20.4085 10.1905C19.1637 5.49209 18.3674 4.00174 16.9174 2.55088C15.2638 0.896209 12.6707 0 9.96082 0ZM100.465 34.9858C102.711 32.7554 103.786 30.3154 103.786 26.6722C103.786 23.453 102.606 20.4713 100.809 18.6871C98.4605 16.354 95.543 15.6186 90.7861 15.6186H84.1232C81.5773 15.6186 80.5628 15.3109 79.7599 14.5233C79.2088 13.9827 78.9502 13.179 78.9502 12.2316C78.9502 11.2523 79.1863 10.2851 79.8601 9.62441C80.4582 9.03803 81.2732 8.7692 82.8396 8.7692H102.096V0.880345H84.3107C79.0435 0.880345 76.4745 1.99831 74.4445 4.01421C72.1987 6.2444 71.1244 8.68465 71.1244 12.3279C71.1244 15.5476 72.3041 18.5289 74.1004 20.3129C76.4495 22.646 79.3667 23.381 84.1237 23.3814L90.7869 23.3818C93.3329 23.382 94.3474 23.6888 95.1503 24.4767C95.7014 25.0176 95.9596 25.821 95.9596 26.7684C95.9596 27.7477 95.7237 28.7151 95.05 29.3756C94.4518 29.9621 93.6365 30.2312 92.0701 30.2312H72.2097L64.5926 6.42682C64.0643 4.7758 63.309 3.37405 62.3504 2.44034C60.7057 0.838386 58.7675 0 55.7088 0C52.6502 0 50.7112 0.838325 49.0673 2.43991C48.1085 3.37399 47.3534 4.77537 46.8251 6.42638L36.6833 38.1192H44.9934L54.2785 9.10643C54.381 8.78614 54.4772 8.51436 54.6261 8.33315C54.8811 8.02291 55.2346 7.86025 55.7093 7.86025C56.1839 7.86025 56.5367 8.02293 56.792 8.33315C56.9408 8.5141 57.037 8.78597 57.1395 9.10643L66.4247 38.1192L90.599 38.1194C95.8662 38.1195 98.4353 37.0018 100.465 34.9858ZM120.974 0C117.916 0 115.977 0.838387 114.332 2.44034C113.374 3.37405 112.619 4.77581 112.091 6.42682L101.949 38.1197H110.259L119.544 9.10686C119.646 8.78641 119.743 8.51445 119.891 8.33358C120.146 8.02328 120.499 7.86025 120.974 7.86025C121.449 7.86025 121.802 8.02334 122.057 8.33358C122.206 8.51479 122.303 8.78658 122.405 9.10686L131.69 38.1192H140L129.858 6.42638C129.33 4.77529 128.575 3.37385 127.616 2.43991C125.972 0.838188 124.033 0 120.974 0Z" fill="#A695F0"/>
</svg>
