<svg width="140" height="35" viewBox="0 0 140 35" fill="none" xmlns="http://www.w3.org/2000/svg">
<path d="M35.8188 21.155C35.1691 21.155 34.5734 21.4764 34.2485 22.0119C33.9237 22.5475 33.9237 23.2438 34.2485 23.7793C34.5734 24.3149 35.1691 24.663 35.8188 24.6363C36.7935 24.6095 37.5516 23.8329 37.5516 22.8956C37.5787 21.9584 36.7935 21.1818 35.8188 21.155Z" fill="#A695F0"/>
<path d="M33.5718 25.7076C32.7325 25.7076 32.0557 26.3771 32.0557 27.1805C32.0557 28.0106 32.7325 28.6801 33.5718 28.6801C34.4111 28.6801 35.088 28.0106 35.088 27.1805C35.088 26.3771 34.4111 25.7076 33.5718 25.7076Z" fill="#A695F0"/>
<path d="M30.2837 31.8374C31.001 31.8137 31.5631 31.2194 31.5392 30.51C31.5154 29.8005 30.9145 29.2445 30.1972 29.2681C29.4799 29.2918 28.9178 29.8861 28.9417 30.5955C28.9656 31.305 29.5664 31.861 30.2837 31.8374Z" fill="#A695F0"/>
<path d="M26.4787 31.6792C25.8831 31.6792 25.4229 32.1344 25.4229 32.7236C25.4229 33.3127 25.8831 33.7679 26.4787 33.7679C27.0744 33.7679 27.5346 33.3127 27.5346 32.7236C27.5346 32.1344 27.0744 31.6792 26.4787 31.6792Z" fill="#A695F0"/>
<path d="M22.7968 32.938C22.3094 32.938 21.9033 33.3397 21.9033 33.8217C21.9033 34.3037 22.3094 34.7054 22.7968 34.7054C23.2841 34.7054 23.6902 34.3037 23.6902 33.8217C23.7173 33.3397 23.3112 32.938 22.7968 32.938Z" fill="#A695F0"/>
<path d="M19.3584 33.4468C18.9252 33.4468 18.5732 33.7949 18.5732 34.2234C18.5732 34.6518 18.9252 34.9999 19.3584 34.9999C19.7916 34.9999 20.1435 34.6518 20.1435 34.2234C20.1165 33.7949 19.7645 33.4468 19.3584 33.4468Z" fill="#A695F0"/>
<path d="M15.8925 32.938C15.4051 32.938 14.999 33.3397 14.999 33.8217C14.999 34.3037 15.4051 34.7054 15.8925 34.7054C16.3798 34.7054 16.7859 34.3037 16.7859 33.8217C16.7859 33.3397 16.3798 32.938 15.8925 32.938Z" fill="#A695F0"/>
<path d="M12.2101 31.6523C11.8311 31.6523 11.4791 31.8398 11.2896 32.1611C11.1001 32.4825 11.1001 32.8842 11.2896 33.2055C11.4791 33.5269 11.8311 33.7143 12.2101 33.7143C12.7787 33.7143 13.266 33.2591 13.266 32.6699C13.2389 32.1344 12.7787 31.6791 12.2101 31.6523Z" fill="#A695F0"/>
<path d="M8.44681 29.2689C7.98656 29.2689 7.55337 29.5099 7.3097 29.9116C7.06604 30.3133 7.06604 30.7953 7.3097 31.197C7.55337 31.5987 7.95948 31.8397 8.44681 31.8397C9.15074 31.8397 9.74637 31.2773 9.74637 30.5543C9.74637 29.8581 9.17781 29.2689 8.44681 29.2689Z" fill="#A695F0"/>
<path d="M5.11673 25.7076C4.27744 25.7076 3.60059 26.3771 3.60059 27.2072C3.60059 28.0374 4.27744 28.7069 5.11673 28.7069C5.95603 28.7069 6.63288 28.0374 6.63288 27.2072C6.60581 26.3771 5.95603 25.7076 5.11673 25.7076Z" fill="#A695F0"/>
<path d="M2.86963 21.155C2.21985 21.1282 1.62422 21.4764 1.29933 22.0119C0.974442 22.5475 0.974442 23.2437 1.29933 23.7793C1.62422 24.3149 2.21985 24.663 2.86963 24.6362C3.84429 24.6095 4.60237 23.8329 4.60237 22.8956C4.60237 21.9584 3.81722 21.1818 2.86963 21.155Z" fill="#A695F0"/>
<path d="M2.05763 15.4783C0.920518 15.4783 0 16.3887 0 17.5135C0 18.6382 0.920518 19.5486 2.05763 19.5486C3.19474 19.5486 4.11526 18.6382 4.11526 17.5135C4.08818 16.3887 3.19474 15.4783 2.05763 15.4783Z" fill="#A695F0"/>
<path d="M2.86963 10.3368C2.21985 10.3368 1.62422 10.6581 1.29933 11.1937C0.974442 11.7293 0.974442 12.4255 1.29933 12.9611C1.62422 13.4967 2.21985 13.8448 2.86963 13.818C3.84429 13.7912 4.60237 13.0147 4.60237 12.0774C4.60237 11.1402 3.81722 10.3636 2.86963 10.3368Z" fill="#A695F0"/>
<path d="M5.1166 6.29297C4.57512 6.29297 4.06071 6.56076 3.78997 7.04277C3.51923 7.49801 3.51923 8.08714 3.78997 8.54238C4.06071 8.99762 4.57512 9.29218 5.1166 9.29218C5.92882 9.26541 6.60567 8.62272 6.60567 7.79258C6.5786 6.98922 5.92882 6.31975 5.1166 6.29297Z" fill="#A695F0"/>
<path d="M8.44702 3.1333C7.74309 3.1333 7.14746 3.69565 7.14746 4.41868C7.14746 5.11493 7.71602 5.70406 8.44702 5.70406C9.15094 5.70406 9.74657 5.1417 9.74657 4.41868C9.74657 3.72243 9.17802 3.1333 8.44702 3.1333Z" fill="#A695F0"/>
<path d="M12.2102 1.23193C11.6416 1.23193 11.1543 1.68717 11.1543 2.2763C11.1543 2.83866 11.6146 3.32067 12.2102 3.32067C12.7787 3.32067 13.2661 2.86544 13.2661 2.2763C13.239 1.71395 12.7787 1.23193 12.2102 1.23193Z" fill="#A695F0"/>
<path d="M15.8922 0.268066C15.3778 0.268066 14.9717 0.669747 14.9717 1.17854C14.9717 1.68734 15.3778 2.08902 15.8922 2.08902C16.3795 2.08902 16.7856 1.68734 16.7856 1.20532C16.7586 0.669747 16.3795 0.268066 15.8922 0.268066Z" fill="#A695F0"/>
<path d="M19.331 0C18.8979 0 18.5459 0.348123 18.5459 0.776583C18.5459 1.20504 18.8979 1.55317 19.331 1.55317C19.7642 1.55317 20.1162 1.20504 20.1162 0.776583C20.1162 0.348123 19.7642 0 19.331 0Z" fill="#A695F0"/>
<path d="M22.7968 0.268066C22.3094 0.268066 21.9033 0.669747 21.9033 1.15176C21.9033 1.63378 22.3094 2.03546 22.7968 2.03546C23.2841 2.03546 23.6902 1.63378 23.6902 1.15176C23.7173 0.669747 23.3112 0.268066 22.7968 0.268066Z" fill="#A695F0"/>
<path d="M26.4787 1.23193C26.0996 1.23193 25.7477 1.41938 25.5582 1.74073C25.3686 2.06207 25.3686 2.46375 25.5582 2.7851C25.7477 3.10644 26.0996 3.29389 26.4787 3.29389C27.0472 3.29389 27.5346 2.83866 27.5346 2.24952C27.5346 1.66039 27.0743 1.23193 26.4787 1.23193Z" fill="#A695F0"/>
<path d="M30.2419 3.15967C29.538 3.15967 28.9424 3.72202 28.9424 4.44505C28.9424 5.14129 29.5109 5.73042 30.2419 5.73042C30.9459 5.73042 31.5415 5.16807 31.5415 4.44505C31.5415 3.72202 30.9459 3.15967 30.2419 3.15967Z" fill="#A695F0"/>
<path d="M33.5718 6.29297C32.7325 6.29297 32.0557 6.96244 32.0557 7.79258C32.0557 8.62272 32.7325 9.29218 33.5718 9.29218C34.4111 9.29218 35.088 8.62272 35.088 7.79258C35.088 6.96244 34.4111 6.29297 33.5718 6.29297Z" fill="#A695F0"/>
<path d="M35.8188 10.3368C35.1691 10.3368 34.5734 10.6581 34.2485 11.1937C33.9237 11.7293 33.9237 12.4255 34.2485 12.9611C34.5734 13.4967 35.1691 13.8448 35.8188 13.818C36.7935 13.7912 37.5516 13.0147 37.5516 12.0774C37.5516 11.1134 36.7935 10.3368 35.8188 10.3368Z" fill="#A695F0"/>
<path d="M27.6971 20.1646C27.3992 20.1646 27.1285 20.2984 26.9931 20.5395C26.8578 20.7805 26.8578 21.1018 26.9931 21.3428C27.1285 21.5838 27.3992 21.7445 27.6971 21.7177C28.1302 21.6909 28.4551 21.3428 28.4551 20.9411C28.4822 20.5395 28.1302 20.1913 27.6971 20.1646Z" fill="#A695F0"/>
<path d="M25.7205 23.0833C25.4227 23.0833 25.1519 23.2171 25.0166 23.4582C24.8812 23.6992 24.8812 24.0205 25.0166 24.2615C25.1519 24.5025 25.4498 24.6632 25.7205 24.6364C26.1537 24.6096 26.4786 24.2615 26.4786 23.8598C26.4786 23.4582 26.1537 23.11 25.7205 23.0833Z" fill="#A695F0"/>
<path d="M22.7696 24.9578C22.4717 24.9578 22.1739 25.1184 22.0115 25.3862C21.849 25.654 21.849 25.9754 22.0115 26.2431C22.1739 26.5109 22.4447 26.6716 22.7696 26.6716C23.2569 26.6716 23.6359 26.2967 23.6359 25.8147C23.6359 25.3327 23.2569 24.9578 22.7696 24.9578Z" fill="#A695F0"/>
<path d="M19.3038 25.4667C18.6541 25.4667 18.1396 25.9755 18.1396 26.6182C18.1396 27.2608 18.6541 27.7696 19.3038 27.7696C19.9536 27.7696 20.468 27.2608 20.468 26.6182C20.4409 25.9755 19.9265 25.4667 19.3038 25.4667Z" fill="#A695F0"/>
<path d="M15.811 24.7704C15.08 24.7704 14.4844 25.3595 14.4844 26.0825C14.4844 26.8056 15.08 27.3947 15.811 27.3947C16.542 27.3947 17.1376 26.8056 17.1376 26.0825C17.1376 25.3595 16.542 24.7704 15.811 24.7704Z" fill="#A695F0"/>
<path d="M12.671 22.5743C11.8588 22.5743 11.209 23.217 11.209 24.0204C11.209 24.8238 11.8588 25.4664 12.671 25.4664C13.4832 25.4664 14.133 24.8238 14.133 24.0204C14.133 23.217 13.4832 22.5743 12.671 22.5743Z" fill="#A695F0"/>
<path d="M10.5855 19.6289C9.90867 19.6289 9.36719 20.1645 9.36719 20.8339C9.36719 21.5034 9.90867 22.039 10.5855 22.039C11.2624 22.039 11.8039 21.5034 11.8039 20.8339C11.8309 20.1913 11.2624 19.6289 10.5855 19.6289Z" fill="#A695F0"/>
<path d="M10.099 16.4155C9.58455 16.4155 9.15137 16.844 9.15137 17.3528C9.15137 17.8616 9.58455 18.29 10.099 18.29C10.6134 18.29 11.0466 17.8616 11.0466 17.3528C11.0466 16.8172 10.6404 16.4155 10.099 16.4155Z" fill="#A695F0"/>
<path d="M10.9375 13.2554C10.5043 13.2554 10.1523 13.6035 10.1523 14.032C10.1523 14.4604 10.5043 14.8085 10.9375 14.8085C11.3707 14.8085 11.7226 14.4604 11.7226 14.032C11.7497 13.6035 11.3707 13.2554 10.9375 13.2554Z" fill="#A695F0"/>
<path d="M12.9412 10.3635C12.6434 10.3635 12.3726 10.4974 12.2373 10.7384C12.1019 10.9794 12.1019 11.3008 12.2373 11.5418C12.3726 11.7828 12.6705 11.9435 12.9412 11.9167C13.3744 11.9167 13.7263 11.5686 13.7263 11.1401C13.6993 10.7116 13.3473 10.3635 12.9412 10.3635Z" fill="#A695F0"/>
<path d="M15.8654 8.328C15.3781 8.328 14.999 8.7029 14.999 9.18492C14.999 9.66694 15.3781 10.0418 15.8654 10.0418C16.3527 10.0418 16.7318 9.66694 16.7318 9.18492C16.7318 8.72968 16.3527 8.328 15.8654 8.328Z" fill="#A695F0"/>
<path d="M20.5159 8.41182C20.5406 7.77632 20.0398 7.24136 19.3973 7.21695C18.7547 7.19255 18.2139 7.68794 18.1892 8.32344C18.1645 8.95894 18.6654 9.49391 19.3079 9.51831C19.9504 9.54272 20.4913 9.04732 20.5159 8.41182Z" fill="#A695F0"/>
<path d="M22.8237 7.60498C22.0927 7.60498 21.4971 8.19411 21.4971 8.91714C21.4971 9.64016 22.0927 10.2293 22.8237 10.2293C23.5547 10.2293 24.1503 9.64016 24.1503 8.91714C24.1503 8.19411 23.5547 7.60498 22.8237 7.60498Z" fill="#A695F0"/>
<path d="M25.964 9.5332C25.1517 9.5332 24.502 10.1759 24.502 10.9793C24.502 11.7826 25.1517 12.4253 25.964 12.4253C26.7762 12.4253 27.426 11.7826 27.426 10.9793C27.426 10.1759 26.7762 9.5332 25.964 9.5332Z" fill="#A695F0"/>
<path d="M28.0484 12.9343C27.3716 12.9343 26.8301 13.4699 26.8301 14.1394C26.8301 14.8088 27.3716 15.3444 28.0484 15.3444C28.7253 15.3444 29.2667 14.8088 29.2667 14.1394C29.2667 13.4699 28.7253 12.9343 28.0484 12.9343Z" fill="#A695F0"/>
<path d="M24.854 19.7092C25.2578 19.7092 25.585 19.3855 25.585 18.9862C25.585 18.5869 25.2578 18.2632 24.854 18.2632C24.4503 18.2632 24.123 18.5869 24.123 18.9862C24.123 19.3855 24.4503 19.7092 24.854 19.7092Z" fill="#A695F0"/>
<path d="M23.4189 20.5125C22.8233 20.5125 22.3359 20.9945 22.3359 21.5836C22.3359 22.1727 22.8233 22.6547 23.4189 22.6547C24.0145 22.6547 24.5019 22.1727 24.5019 21.5836C24.5289 20.9945 24.0416 20.5125 23.4189 20.5125Z" fill="#A695F0"/>
<path d="M20.6303 21.9586C20.0076 21.9586 19.4932 22.4674 19.4932 23.0833C19.4932 23.6992 20.0076 24.208 20.6303 24.208C21.253 24.208 21.7674 23.6992 21.7674 23.0833C21.7674 22.4674 21.253 21.9586 20.6303 21.9586Z" fill="#A695F0"/>
<path d="M17.3278 21.8782C16.9759 21.8782 16.6239 22.0656 16.4615 22.387C16.272 22.7083 16.272 23.0832 16.4615 23.3778C16.651 23.6991 16.9759 23.8866 17.3278 23.8866C17.8964 23.8866 18.3296 23.4313 18.3296 22.8958C18.3567 22.3334 17.8964 21.8782 17.3278 21.8782Z" fill="#A695F0"/>
<path d="M14.8912 20.2446C14.485 20.2446 14.1602 20.566 14.1602 20.9677C14.1602 21.3693 14.485 21.6907 14.8912 21.6907C15.2973 21.6907 15.6222 21.3693 15.6222 20.9677C15.6492 20.5928 15.2973 20.2446 14.8912 20.2446Z" fill="#A695F0"/>
<path d="M13.9165 18.129C13.6187 18.129 13.375 18.3702 13.375 18.665C13.375 18.9598 13.6187 19.201 13.9165 19.201C14.2143 19.201 14.458 18.9598 14.458 18.665C14.458 18.3702 14.2143 18.129 13.9165 18.129Z" fill="#A695F0"/>
<path d="M13.8619 15.371C13.4557 15.371 13.1309 15.6923 13.1309 16.094C13.1309 16.4957 13.4557 16.817 13.8619 16.817C14.268 16.817 14.5929 16.4957 14.5929 16.094C14.5929 15.6923 14.268 15.371 13.8619 15.371Z" fill="#A695F0"/>
<path d="M15.2968 12.3987C14.7012 12.3987 14.2139 12.8807 14.2139 13.4698C14.2139 14.059 14.7012 14.541 15.2968 14.541C15.8925 14.541 16.3798 14.059 16.3798 13.4698C16.3798 12.8807 15.8925 12.3987 15.2968 12.3987Z" fill="#A695F0"/>
<path d="M18.0854 10.8451C17.4627 10.8451 16.9482 11.3539 16.9482 11.9698C16.9482 12.5857 17.4627 13.0945 18.0854 13.0945C18.7081 13.0945 19.2225 12.5857 19.2225 11.9698C19.2225 11.3539 18.7081 10.8451 18.0854 10.8451Z" fill="#A695F0"/>
<path d="M21.3881 11.1935C21.0091 11.1935 20.6842 11.3809 20.4947 11.6755C20.3052 11.9968 20.3052 12.3717 20.4947 12.6931C20.6842 13.0144 21.0362 13.2019 21.3881 13.1751C21.9296 13.1483 22.3628 12.7199 22.3628 12.1843C22.3628 11.6487 21.9296 11.2203 21.3881 11.1935Z" fill="#A695F0"/>
<path d="M23.7984 13.3359C23.3923 13.3359 23.0674 13.6573 23.0674 14.059C23.0674 14.4606 23.3923 14.782 23.7984 14.782C24.2045 14.782 24.5294 14.4606 24.5294 14.059C24.5565 13.6573 24.2316 13.3359 23.7984 13.3359Z" fill="#A695F0"/>
<path d="M24.8266 15.8799C24.5288 15.8799 24.2852 16.1211 24.2852 16.4159C24.2852 16.7107 24.5288 16.9519 24.8266 16.9519C25.1245 16.9519 25.3681 16.7107 25.3681 16.4159C25.3681 16.1211 25.1245 15.8799 24.8266 15.8799Z" fill="#A695F0"/>
<path d="M28.5365 16.7097C28.0221 16.7097 27.5889 17.1382 27.5889 17.647C27.5889 18.1558 28.0221 18.5842 28.5365 18.5842C29.0509 18.5842 29.4841 18.1558 29.4841 17.647C29.4841 17.1382 29.0509 16.7097 28.5365 16.7097Z" fill="#A695F0"/>
<path d="M32.4617 17.8612C31.8931 17.8612 31.46 18.3164 31.46 18.852C31.46 19.4144 31.9202 19.8428 32.4617 19.8428C33.0303 19.8428 33.4634 19.3876 33.4634 18.852C33.4634 18.3164 33.0303 17.8612 32.4617 17.8612Z" fill="#A695F0"/>
<path d="M31.4603 21.3693C30.9459 21.3693 30.5127 21.7977 30.5127 22.3065C30.5127 22.8153 30.9459 23.2438 31.4603 23.2438C31.9747 23.2438 32.4079 22.8153 32.4079 22.3065C32.4079 21.7977 32.0018 21.3693 31.4603 21.3693Z" fill="#A695F0"/>
<path d="M29.7546 24.3152C29.3214 24.3152 28.9424 24.6633 28.9424 25.1185C28.9424 25.547 29.2943 25.9219 29.7546 25.9219C30.1878 25.9219 30.5398 25.547 30.5398 25.1185C30.5398 24.6901 30.1878 24.342 29.7546 24.3152Z" fill="#A695F0"/>
<path d="M27.6969 26.5107C27.4532 26.5107 27.2096 26.6446 27.0742 26.8589C26.9388 27.0731 26.9388 27.3409 27.0742 27.5551C27.2096 27.7693 27.4261 27.9032 27.6969 27.9032C28.0759 27.9032 28.4008 27.6087 28.4008 27.207C28.4008 26.8321 28.0759 26.5107 27.6969 26.5107Z" fill="#A695F0"/>
<path d="M25.5312 28.1174C25.2063 28.1174 24.9355 28.3854 24.9355 28.707C24.9355 29.0286 25.2063 29.2966 25.5312 29.2966C25.8561 29.2966 26.1268 29.0286 26.1268 28.707C26.1268 28.3854 25.8561 28.1174 25.5312 28.1174Z" fill="#A695F0"/>
<path d="M23.0672 29.0283C22.6882 29.0283 22.3633 29.3229 22.3633 29.7246C22.3633 30.0995 22.6611 30.4208 23.0672 30.4208C23.4462 30.4208 23.7711 30.1262 23.7711 29.7246C23.7441 29.3229 23.4462 29.0283 23.0672 29.0283Z" fill="#A695F0"/>
<path d="M20.1706 29.4836C19.7374 29.4836 19.3584 29.8318 19.3584 30.287C19.3584 30.7155 19.7104 31.0904 20.1706 31.0904C20.6038 31.0904 20.9828 30.7422 20.9828 30.287C20.9558 29.8318 20.6038 29.4836 20.1706 29.4836Z" fill="#A695F0"/>
<path d="M16.8667 29.1621C16.2981 29.1621 15.8379 29.6173 15.8379 30.1797C15.8379 30.7421 16.2981 31.1973 16.8667 31.1973C17.4353 31.1973 17.8955 30.7421 17.8955 30.1797C17.8955 29.6173 17.4353 29.1621 16.8667 29.1621Z" fill="#A695F0"/>
<path d="M13.3746 27.9301C12.6977 27.9301 12.1562 28.4656 12.1562 29.1351C12.1562 29.8046 12.6977 30.3401 13.3746 30.3401C14.0514 30.3401 14.5929 29.8046 14.5929 29.1351C14.62 28.4656 14.0514 27.9301 13.3746 27.9301Z" fill="#A695F0"/>
<path d="M10.3154 25.6272C9.80097 25.6272 9.31364 25.895 9.0429 26.3234C8.77216 26.7787 8.77216 27.3143 9.0429 27.7695C9.31364 28.2247 9.80097 28.4925 10.3154 28.4657C11.1005 28.439 11.7232 27.8231 11.7232 27.0465C11.7232 26.2967 11.1005 25.654 10.3154 25.6272Z" fill="#A695F0"/>
<path d="M7.74315 22.1997C6.87678 22.1997 6.17285 22.896 6.17285 23.7529C6.17285 24.6098 6.87678 25.306 7.74315 25.306C8.60952 25.306 9.31344 24.6098 9.31344 23.7529C9.31344 22.8692 8.60952 22.1997 7.74315 22.1997Z" fill="#A695F0"/>
<path d="M7.53479 19.9175C7.58354 19.2388 7.06688 18.6496 6.38078 18.6014C5.69468 18.5532 5.09896 19.0642 5.0502 19.7428C5.00144 20.4214 5.51811 21.0107 6.20421 21.0589C6.89031 21.1071 7.48603 20.5961 7.53479 19.9175Z" fill="#A695F0"/>
<path d="M7.21505 16.1808C7.24565 15.6344 6.82263 15.1669 6.27021 15.1367C5.71779 15.1064 5.24517 15.5248 5.21458 16.0712C5.18398 16.6176 5.607 17.0851 6.15942 17.1153C6.71183 17.1456 7.18446 16.7272 7.21505 16.1808Z" fill="#A695F0"/>
<path d="M7.22884 11.7292C6.71444 11.7292 6.28125 12.1577 6.28125 12.6665C6.28125 13.1753 6.71444 13.6038 7.22884 13.6038C7.74325 13.6038 8.17643 13.1753 8.17643 12.6665C8.17643 12.1577 7.74325 11.7292 7.22884 11.7292Z" fill="#A695F0"/>
<path d="M8.93436 9.078C8.63655 9.078 8.3658 9.2119 8.23043 9.47968C8.09506 9.72069 8.09506 10.042 8.23043 10.283C8.3658 10.5241 8.66362 10.6847 8.93436 10.6847C9.36755 10.6847 9.71951 10.3098 9.71951 9.88136C9.71951 9.42613 9.36755 9.078 8.93436 9.078Z" fill="#A695F0"/>
<path d="M10.992 7.09656C10.613 7.09656 10.2881 7.39112 10.2881 7.7928C10.2881 8.16771 10.5859 8.48905 10.992 8.48905C11.3981 8.48905 11.6959 8.19448 11.6959 7.7928C11.6959 7.4179 11.371 7.09656 10.992 7.09656Z" fill="#A695F0"/>
<path d="M13.1581 5.7041C12.8332 5.7041 12.5625 5.9721 12.5625 6.29369C12.5625 6.61528 12.8332 6.88327 13.1581 6.88327C13.483 6.88327 13.7538 6.61528 13.7538 6.29369C13.7538 5.9453 13.483 5.7041 13.1581 5.7041Z" fill="#A695F0"/>
<path d="M15.6219 4.60583C15.2429 4.60583 14.918 4.9004 14.918 5.30208C14.918 5.67698 15.2158 5.99833 15.6219 5.99833C16.0009 5.99833 16.3258 5.70376 16.3258 5.30208C16.3258 4.9004 16.0009 4.60583 15.6219 4.60583Z" fill="#A695F0"/>
<path d="M18.5183 3.90955C18.2205 3.90955 17.9498 4.04344 17.8144 4.31123C17.679 4.55224 17.679 4.87358 17.8144 5.11459C17.9498 5.3556 18.2476 5.51627 18.5183 5.51627C18.9515 5.51627 19.3035 5.14137 19.3035 4.71291C19.3035 4.28445 18.9515 3.93632 18.5183 3.90955Z" fill="#A695F0"/>
<path d="M21.8214 3.77588C21.4424 3.77588 21.0904 3.96333 20.9009 4.28467C20.7114 4.60602 20.7114 5.0077 20.9009 5.32904C21.0904 5.65039 21.4424 5.83784 21.8214 5.83784C22.39 5.83784 22.8503 5.35582 22.8503 4.79347C22.8503 4.23112 22.39 3.77588 21.8214 3.77588Z" fill="#A695F0"/>
<path d="M25.2063 4.55212C24.5295 4.55212 23.9609 5.0877 23.9609 5.78394C23.9609 6.45341 24.5024 7.01577 25.2063 7.01577C25.8832 7.01577 26.4518 6.48019 26.4518 5.78394C26.4518 5.11448 25.8832 4.55212 25.2063 4.55212Z" fill="#A695F0"/>
<path d="M28.4007 6.48035C27.5885 6.48035 26.9658 7.12304 26.9658 7.89962C26.9658 8.6762 27.6156 9.31889 28.4007 9.31889C29.213 9.31889 29.8357 8.6762 29.8357 7.89962C29.8357 7.12304 29.1859 6.48035 28.4007 6.48035Z" fill="#A695F0"/>
<path d="M30.9459 9.69373C30.3774 9.69373 29.863 9.98829 29.5652 10.4703C29.2673 10.9523 29.2673 11.5415 29.5652 12.0235C29.863 12.5055 30.3774 12.8001 30.9459 12.8001C31.8123 12.7733 32.4892 12.1038 32.4892 11.2469C32.4621 10.4168 31.7852 9.7205 30.9459 9.69373Z" fill="#A695F0"/>
<path d="M32.3802 13.9517C31.947 13.9517 31.5138 14.1659 31.2972 14.5408C31.0806 14.9157 31.0806 15.3977 31.2972 15.7726C31.5138 16.1475 31.947 16.3885 32.3802 16.3617C33.057 16.335 33.5714 15.7994 33.5714 15.1567C33.5714 14.514 33.057 13.9784 32.3802 13.9517Z" fill="#A695F0"/>
<path d="M38.6885 17.4866C38.6885 18.6113 37.768 19.5218 36.6309 19.5218C35.4938 19.5218 34.5732 18.6113 34.5732 17.4866C34.5732 16.3619 35.4938 15.4514 36.6309 15.4514C37.768 15.4782 38.6885 16.3887 38.6885 17.4866Z" fill="#A695F0"/>
<path d="M140 20.6198C140 18.6917 138.89 17.6742 137.157 16.9779C135.803 16.4423 134.612 15.9871 133.691 15.6122C132.798 15.2641 132.013 14.6482 132.013 13.9787C132.013 13.0682 133.15 12.5326 134.666 12.5326C136.453 12.5326 137.861 12.7737 139.187 12.9075H139.241C139.458 12.9075 139.593 12.7469 139.593 12.5326V11.033C139.593 10.8456 139.431 10.6849 139.214 10.6581C138.51 10.4975 136.724 10.1226 134.774 10.1226C130.984 10.1226 129.17 11.7293 129.17 13.9787C129.17 15.398 129.793 16.7905 131.58 17.5135C133.366 18.2365 137.021 19.0934 137.021 20.593C137.021 21.7713 136.48 22.414 134.639 22.414C132.744 22.414 130.821 22.1462 130.009 22.0391H129.955C129.738 22.0391 129.576 22.1998 129.576 22.414V23.86C129.576 24.0743 129.766 24.2349 129.955 24.2617C130.93 24.4759 132.771 24.7973 134.585 24.7973C138.727 24.8509 140 22.655 140 20.6198Z" fill="#A695F0"/>
<path d="M99.9301 12.6396H95.842V24.2616C95.842 24.4758 95.6524 24.6632 95.4358 24.6632H93.4053C93.1887 24.6632 92.9992 24.4758 92.9992 24.2616V12.6396H88.911C88.6944 12.6396 88.5049 12.5057 88.5049 12.2647V10.658C88.5049 10.4438 88.6944 10.2831 88.911 10.2831H99.9301C100.147 10.2831 100.336 10.4438 100.336 10.658V12.2647C100.336 12.5057 100.147 12.6396 99.9301 12.6396Z" fill="#A695F0"/>
<path d="M86.7179 19.1201V10.6848C86.7179 10.4706 86.5284 10.3099 86.3118 10.3099H84.2813C84.0647 10.3099 83.8752 10.4706 83.8752 10.6848V19.0934C83.8752 21.3963 82.7922 22.4943 80.5992 22.4943C78.4062 22.4943 77.3232 21.3963 77.3232 19.0934V10.6848C77.3232 10.4706 77.1337 10.3099 76.9171 10.3099H74.8866C74.67 10.3099 74.4805 10.4706 74.4805 10.6848V19.0934C74.4805 23.4047 77.3232 24.824 80.5992 24.824C83.8752 24.824 86.7179 23.4315 86.7179 19.1201Z" fill="#A695F0"/>
<path d="M105.047 18.4236H111.599C111.816 18.4236 112.005 18.2361 112.005 18.0219V16.549C112.005 16.3348 111.816 16.1474 111.599 16.1474H105.047V14.2996C105.047 12.6126 105.101 12.559 106.672 12.559H111.843C112.059 12.559 112.249 12.3716 112.249 12.1573V10.872C112.249 10.5774 112.141 10.4971 111.843 10.4435C111.193 10.3364 109.866 10.1489 107.43 10.1489C104.045 10.1489 102.231 10.1222 102.231 14.2996V20.6997C102.231 24.8772 104.045 24.8504 107.43 24.8504C109.866 24.8504 111.193 24.663 111.843 24.5559C112.141 24.5291 112.249 24.422 112.249 24.1274V22.842C112.249 22.6278 112.059 22.4404 111.843 22.4404H106.672C105.128 22.4404 105.047 22.3868 105.047 20.6997V18.4236Z" fill="#A695F0"/>
<path d="M64.6262 18.4236H71.1782C71.3948 18.4236 71.5843 18.2361 71.5843 18.0219V16.549C71.5843 16.3348 71.3948 16.1474 71.1782 16.1474H64.6262V14.2996C64.6262 12.6126 64.6804 12.559 66.2507 12.559H71.4218C71.6384 12.559 71.8279 12.3716 71.8279 12.1573V10.872C71.8279 10.5774 71.7197 10.4971 71.4218 10.4435C70.7721 10.3364 69.4454 10.1489 67.0088 10.1489C63.6245 10.1489 61.8105 10.1222 61.8105 14.2996V20.6997C61.8105 24.8772 63.6245 24.8504 67.0088 24.8504C69.4454 24.8504 70.7721 24.663 71.4218 24.5559C71.7197 24.5291 71.8279 24.422 71.8279 24.1274V22.842C71.8279 22.6278 71.6384 22.4404 71.4218 22.4404H66.2507C64.7075 22.4404 64.6262 22.3868 64.6262 20.6997V18.4236Z" fill="#A695F0"/>
<path d="M127.465 24.2613L124.27 18.852C125.948 18.2093 127.031 17.0311 127.031 14.8888V14.7281C127.031 11.2736 124.134 10.1489 120.967 10.1489C119.478 10.1489 117.176 10.256 116.12 10.4167C115.714 10.4703 115.471 10.6309 115.471 11.0326V24.2881C115.471 24.5023 115.66 24.6898 115.877 24.6898H117.934C118.151 24.6898 118.313 24.5023 118.313 24.2881V19.2805C118.774 19.3072 120.425 19.3608 120.967 19.3608H121.427L124.378 24.2613C124.486 24.4488 124.568 24.663 124.784 24.663H127.275C127.437 24.663 127.519 24.5559 127.519 24.422C127.519 24.3684 127.492 24.3149 127.465 24.2613ZM124.189 14.8888C124.189 16.6562 123.051 17.0578 120.94 17.0578C120.588 17.0578 118.611 17.0043 118.286 17.0043V12.6393C118.638 12.5858 120.506 12.559 120.94 12.559C122.997 12.559 124.189 13.2017 124.189 14.7281V14.8888Z" fill="#A695F0"/>
<path d="M59.5902 24.2613L56.3684 18.852C58.047 18.2093 59.13 17.0311 59.13 14.8888V14.7281C59.13 11.2736 56.233 10.1489 53.0654 10.1489C51.5763 10.1489 49.275 10.256 48.2191 10.4167C47.813 10.4703 47.5693 10.6309 47.5693 11.0326V24.2881C47.5693 24.5023 47.7589 24.6898 47.9754 24.6898H50.0331C50.2497 24.6898 50.4121 24.5023 50.4121 24.2881V19.2805C50.8724 19.3072 52.5239 19.3608 53.0654 19.3608H53.5256L56.4767 24.2613C56.585 24.4488 56.6662 24.663 56.8828 24.663H59.3736C59.5361 24.663 59.6173 24.5559 59.6173 24.422C59.6173 24.3684 59.6173 24.3149 59.5902 24.2613ZM56.3143 14.8888C56.3143 16.6562 55.1772 17.0578 53.0924 17.0578C52.7405 17.0578 50.7641 17.0043 50.4392 17.0043V12.6393C50.7912 12.5858 52.6593 12.559 53.0924 12.559C55.1501 12.559 56.3143 13.2017 56.3143 14.7281V14.8888Z" fill="#A695F0"/>
</svg>
