<svg width="64" height="64" viewBox="0 0 64 64" fill="none" xmlns="http://www.w3.org/2000/svg">
<path d="M32.0281 17.5002V32.0999H31.9718C30.7805 32.0999 29.6045 32.0282 28.4438 31.9001C12.4451 30.1167 0 16.5163 0 0L14.5671 0C14.5671 9.66995 22.3849 17.5002 32.0281 17.5002Z" fill="#FF9E68"/>
<path d="M32.0281 49.4001V63.9998C14.3421 63.9998 0 49.6307 0 31.8999H14.5671C14.5671 41.5699 22.3849 49.4001 32.0281 49.4001Z" fill="#FF9E68"/>
<path d="M63.9998 17.5002L63.9998 32.0999H63.9436C62.7523 32.0999 61.5763 32.0282 60.4156 31.9001C44.4169 30.1167 31.9717 16.5163 31.9717 0L46.5388 0C46.5388 9.66995 54.3566 17.5002 63.9998 17.5002Z" fill="#FF9E68"/>
<path d="M64 49.4006L64 64.0003C46.314 64.0003 31.9719 49.6312 31.9719 31.9004H46.539C46.539 41.5703 54.3568 49.4006 64 49.4006Z" fill="#FF9E68"/>
</svg>
