<svg width="86" height="86" viewBox="0 0 86 86" fill="none" xmlns="http://www.w3.org/2000/svg">
<path d="M32.0868 64.861L32.1112 64.8103C38.0171 52.635 52.6597 47.5242 64.8586 53.3902C70.7458 56.2212 70.275 64.7608 64.1052 66.924L41.1135 74.985C34.9368 77.1506 29.2305 70.7537 32.0868 64.861Z" fill="#FF9E68"/>
<path d="M53.425 20.4864L53.4006 20.5371C47.549 32.8124 32.8387 37.9929 20.5845 32.1002L20.4783 32.0492C14.5911 29.2182 15.0619 20.6786 21.2318 18.5154L44.3784 10.4039C50.5346 8.24555 56.2355 14.5944 53.425 20.4864Z" fill="#FF9E68"/>
<path d="M20.5324 32.1378L20.5831 32.1622C32.7575 38.0676 37.8671 52.7106 32.0005 64.9105C29.1693 70.7982 20.6302 70.3279 18.4675 64.1579L10.4083 41.1655C8.24326 34.9887 14.6402 29.2817 20.5324 32.1378Z" fill="#FF9E68"/>
<path d="M64.9011 53.479L64.8503 53.4546C52.5761 47.6034 47.3967 32.8928 53.2899 20.6375L53.3409 20.5314C56.1721 14.6437 64.7113 15.1139 66.8739 21.284L74.9836 44.4313C77.1415 50.5876 70.7925 56.2893 64.9011 53.479Z" fill="#FF9E68"/>
</svg>
